<?xml version="1.0" ?><!DOCTYPE svg  PUBLIC '-//W3C//DTD SVG 1.1//EN'  'http://www.w3.org/Graphics/SVG/1.1/DTD/svg11.dtd'><svg height="5.4186mm" style="shape-rendering:geometricPrecision; text-rendering:geometricPrecision; image-rendering:optimizeQuality; fill-rule:evenodd; clip-rule:evenodd" version="1.1" viewBox="0 0 542 542" width="5.4186mm" xml:space="preserve" xmlns="http://www.w3.org/2000/svg" xmlns:xlink="http://www.w3.org/1999/xlink"><defs><style type="text/css">
   <![CDATA[
    .fil0 {fill:black;fill-rule:nonzero}
   ]]>
  </style></defs><g id="Layer_x0020_1"><path class="fil0" d="M271 93c-98,0 -178,80 -178,178 0,98 80,178 178,178 98,0 178,-80 178,-178 0,-98 -80,-178 -178,-178zm0 17c88,0 161,72 161,161 0,88 -73,161 -161,161 -89,0 -161,-73 -161,-161 0,-89 72,-161 161,-161z"/><path class="fil0" d="M262 186c0,-4 4,-8 9,-8 5,0 8,4 8,8l0 76 77 0c4,0 8,4 8,9 0,5 -4,8 -8,8l-77 0 0 77c0,4 -3,8 -8,8 -5,0 -9,-4 -9,-8l0 -77 -76 0c-4,0 -8,-3 -8,-8 0,-5 4,-9 8,-9l76 0 0 -76z"/></g></svg>